<svg width="37" height="21" viewBox="0 0 37 21" fill="none" xmlns="http://www.w3.org/2000/svg">
<path d="M17.7463 3.83976C17.6827 3.84028 17.6084 3.86191 17.5336 3.87993C17.3379 3.92793 16.0199 4.20114 15.3664 4.2233C14.7129 4.24914 14.6169 4.29714 14.628 4.43374C14.6391 4.57035 14.5541 4.69219 15.4033 4.69219C16.2525 4.69219 16.1787 5.53029 16.1787 5.53029V10.3115C15.4144 9.46237 14.3991 9.05624 13.1438 9.08947C10.6664 9.08947 8.65793 11.2013 8.65793 13.8043C8.65793 16.4072 10.3563 18.4932 13.1438 18.5191C14.5283 18.5634 15.5953 17.8951 16.3522 16.9278C16.474 17.9172 16.7583 18.5301 16.7583 18.5301C16.7583 18.5301 18.1724 18.1351 18.8 17.9763C19.4277 17.8176 19.4535 17.7437 19.4535 17.596C19.4535 17.4484 19.0954 17.5923 18.4936 17.3708C17.8918 17.1493 17.9287 16.0897 17.9287 16.0897V4.1273C17.9287 3.89655 17.8523 3.83884 17.7463 3.83976H17.7463ZM8.98948 9.09611C8.9528 9.09546 8.91612 9.09571 8.87946 9.09685C8.27026 9.11531 7.46539 9.58782 6.91158 9.93857C6.91158 9.93857 6.19155 9.32942 5.29437 9.13373H3.03489C3.03489 9.13373 0.295367 9.7725 0.295367 12.4197C0.295367 12.4197 0.251025 14.5907 2.46627 15.2442C2.46627 15.2442 0.631309 15.6318 0.675614 17.2084C0.697766 17.9948 1.16301 18.4748 2.19679 18.7295C2.19679 18.7295 2.72106 18.8772 3.5887 18.94C4.45634 19.0027 5.63781 19.0212 6.247 19.1504C6.95588 19.2981 7.76076 19.8224 7.69799 20.8672H9.01606C9.01606 20.8672 9.1379 19.6045 8.84254 18.9363C8.54717 18.2643 7.67953 17.5628 6.4796 17.3708C5.27968 17.1788 2.98317 17.1604 2.70626 17.1567C2.42935 17.153 1.67248 17.1087 1.67248 16.5032C1.67248 15.9014 2.51427 15.6651 3.00163 15.6651C3.48898 15.6651 5.3461 15.7205 6.37988 15.0928C7.18845 14.6018 7.83087 14.0479 7.94163 12.5453C8.05239 11.0426 7.2106 10.2746 7.2106 10.2746C7.2106 10.2746 7.46535 10.0125 7.75703 9.90542C8.06347 9.79465 8.45852 9.84265 8.65051 10.0273C8.8425 10.2119 9.14156 10.5441 9.34462 10.57C9.54769 10.5958 9.73967 10.5885 9.73967 10.5885V9.3073C9.73967 9.3073 9.51904 9.10608 8.98948 9.09611ZM4.14621 9.43652C5.30552 9.43652 6.24331 10.4814 6.24331 12.3274C6.24331 14.3322 5.30552 15.2183 4.14621 15.2183C2.98689 15.2183 2.04911 14.2953 2.04911 12.3274C2.04911 10.3079 2.98686 9.43652 4.14617 9.43652H4.14621ZM13.417 9.58051C14.9234 9.58051 16.2156 10.0531 16.1418 13.8153C16.2267 17.6182 14.8385 18.0612 13.417 18.0502C11.4418 18.0391 10.6923 16.1561 10.6923 13.8153C10.6923 11.4746 11.6411 9.6802 13.417 9.58051ZM24.6853 10.0014C25.6932 10.3632 25.5677 11.6813 25.5972 12.3274C25.6267 12.9735 25.2465 13.1471 25.0508 13.232C24.8551 13.3169 22.614 14.0996 21.5359 14.7014C20.4578 15.3033 19.8302 16.038 19.8745 16.9536C19.9188 17.8693 20.2511 18.7701 22.0602 18.807C23.8693 18.844 25.1911 17.6367 25.3166 17.5074C25.4422 17.3782 25.4569 17.5074 25.4569 17.5074C25.6785 18.124 26.0477 18.7997 27.3399 18.7997C28.6321 18.7997 29.0013 17.729 28.7576 17.6293C28.5102 17.5296 28.6838 17.9874 27.8457 17.9874C27.0076 17.9874 27.0962 16.9278 27.0962 16.9278C27.0962 16.9278 27.1959 13.1138 27.1959 11.8585C27.1959 10.6032 26.3836 10.0014 26.3836 10.0014H24.6853ZM20.8418 10.0088C20.8418 10.0088 20.144 10.5368 20.1588 11.2346C20.1773 12.0394 21.5507 12.1317 21.6541 11.3749C21.7612 10.5885 21.8091 10.2488 22.3851 10.0088H20.8418ZM25.5861 13.4683C25.5861 13.4683 25.4864 16.0823 25.4716 16.4995C25.4568 16.9056 25.4642 16.9795 24.3824 17.6514C22.9868 18.4784 21.979 17.9505 21.7464 17.2047C21.5064 16.422 21.7057 15.5285 22.5992 14.8934C23.4927 14.2584 25.5861 13.4683 25.5861 13.4683ZM1.48023 19.2174C1.28846 19.2193 1.06971 19.2707 0.845413 19.4015C0.147609 19.8113 0.0221525 20.6568 0 20.8672H1.21839C1.27377 20.4205 1.76474 19.863 2.0638 19.6747C2.28407 19.5314 1.97028 19.2126 1.48023 19.2174V19.2174ZM21.7648 0.867188V1.53176H22.4294V0.867188H21.7648ZM22.6287 1.73483V2.3994H23.2933V1.73483H22.6287ZM23.4779 1.73483V2.3994H24.1424V1.73483H23.4779ZM24.3271 1.73483V2.3994H24.9916V1.73483H24.3271ZM22.6287 2.59878V3.26335H23.2933V2.59878H22.6287ZM23.4779 2.59878V3.26335H24.1424V2.59878H23.4779ZM24.3271 2.59878V3.26335H24.9916V2.59878H24.3271ZM25.1762 2.59878V3.26335H25.8408V2.59878H25.1762ZM22.6287 3.45903V4.12361H23.2933V3.45903H22.6287ZM23.4779 3.45903V4.12361H24.1424V3.45903H23.4779ZM24.3271 3.45903V4.12361H24.9916V3.45903H24.3271ZM28.621 3.45903V4.12361H29.2856V3.45903H28.621ZM29.4702 3.45903V4.12361H30.1347V3.45903H29.4702ZM24.3271 4.32298V4.98756H24.9917V4.32298H24.3271ZM25.1763 4.32298V4.98756H25.8409V4.32298H25.1763ZM26.0255 4.32298V4.98756H26.6901V4.32298H26.0255ZM29.4702 5.15739V5.82197H30.1348V5.15739H29.4702ZM30.3194 5.15739V5.82197H30.9839V5.15739H30.3194ZM31.1722 5.15739V5.82197H31.8368V5.15739H31.1722ZM26.0255 5.18693V5.85151H26.6901V5.18693H26.0255ZM26.8747 5.18693V5.85151H27.5392V5.18693H26.8747ZM27.7681 6.01765V6.68223H28.4327V6.01765H27.7681ZM28.621 6.01765V6.68223H29.2856V6.01765H28.621ZM29.4702 6.01765V6.68223H30.1348V6.01765H29.4702ZM30.3194 6.01765V6.68223H30.9839V6.01765H30.3194ZM31.1722 6.01765V6.68223H31.8368V6.01765H31.1722ZM32.0251 6.01765V6.68223H32.6897V6.01765H32.0251ZM28.6173 6.8816V7.54617H29.2819V6.8816H28.6173ZM29.4702 6.8816V7.54617H30.1348V6.8816H29.4702ZM30.3194 6.8816V7.54617H30.9839V6.8816H30.3194ZM31.1686 6.8816V7.54617H31.8331V6.8816H31.1686ZM32.0214 6.8816V7.54617H32.686V6.8816H32.0214ZM32.8743 6.8816V7.54617H33.5389V6.8816H32.8743ZM33.7235 6.8816V7.54617H34.3881V6.8816H33.7235ZM28.6173 7.74185V8.40643H29.2819V7.74185H28.6173ZM29.4702 7.74185V8.40643H30.1348V7.74185H29.4702ZM30.3194 7.74185V8.40643H30.9839V7.74185H30.3194ZM31.1686 7.74185V8.40643H31.8331V7.74185H31.1686ZM32.0214 7.74185V8.40643H32.686V7.74185H32.0214ZM32.8743 7.74185V8.40643H33.5389V7.74185H32.8743ZM33.7235 7.74185V8.40643H34.3881V7.74185H33.7235ZM34.58 7.74185V8.40643H35.2446V7.74185H34.58ZM28.6173 8.6058V9.27038H29.2819V8.6058H28.6173ZM29.4702 8.6058V9.27038H30.1348V8.6058H29.4702ZM30.3194 8.6058V9.27038H30.9839V8.6058H30.3194ZM31.1686 8.6058V9.27038H31.8331V8.6058H31.1686ZM32.0214 8.6058V9.27038H32.686V8.6058H32.0214ZM32.8743 8.6058V9.27038H33.5389V8.6058H32.8743ZM33.7235 8.6058V9.27038H34.3881V8.6058H33.7235ZM34.58 8.6058V9.27038H35.2446V8.6058H34.58ZM35.4292 8.6058V9.27038H36.0938V8.6058H35.4292ZM36.2821 8.6058V9.27038H36.9467V8.6058H36.2821ZM28.6173 9.46975V10.1343H29.2819V9.46975H28.6173ZM29.4702 9.46975V10.1343H30.1348V9.46975H29.4702ZM30.3194 9.46975V10.1343H30.9839V9.46975H30.3194ZM31.1686 9.46975V10.1343H31.8331V9.46975H31.1686ZM32.0214 9.46975V10.1343H32.686V9.46975H32.0214ZM32.8743 9.46975V10.1343H33.5389V9.46975H32.8743ZM33.7235 9.46975V10.1343H34.3881V9.46975H33.7235ZM34.58 9.46975V10.1343H35.2446V9.46975H34.58ZM35.4292 9.46975V10.1343H36.0938V9.46975H35.4292ZM36.2821 9.46975V10.1343H36.9467V9.46975H36.2821ZM29.4739 10.3337V10.9983H30.1385V10.3337H29.4739ZM30.3268 10.3337V10.9983H30.9913V10.3337H30.3268ZM31.1759 10.3337V10.9983H31.8405V10.3337H31.1759ZM32.0251 10.3337V10.9983H32.6897V10.3337H32.0251ZM32.878 10.3337V10.9983H33.5426V10.3337H32.878ZM33.7272 10.3337V10.9983H34.3918V10.3337H33.7272ZM34.5801 10.3337V10.9983H35.2446V10.3337H34.5801ZM35.4366 10.3337V10.9983H36.1012V10.3337H35.4366ZM30.3231 11.194V11.8585H30.9876V11.194H30.3231ZM31.1759 11.194V11.8585H31.8405V11.194H31.1759ZM32.0251 11.194V11.8585H32.6897V11.194H32.0251ZM32.8743 11.194V11.8585H33.5389V11.194H32.8743ZM33.7272 11.194V11.8585H34.3918V11.194H33.7272ZM34.5764 11.194V11.8585H35.241V11.194H34.5764ZM35.4293 11.194V11.8585H36.0938V11.194H35.4293ZM30.3231 12.0579V12.7225H30.9876V12.0579H30.3231ZM31.1759 12.0579V12.7225H31.8405V12.0579H31.1759ZM32.0251 12.0579V12.7225H32.6897V12.0579H32.0251ZM32.8743 12.0579V12.7225H33.5389V12.0579H32.8743ZM33.7272 12.0579V12.7225H34.3918V12.0579H33.7272ZM30.3231 12.9219V13.5864H30.9876V12.9219H30.3231ZM31.1759 12.9219V13.5864H31.8405V12.9219H31.1759ZM32.0251 12.9219V13.5864H32.6897V12.9219H32.0251ZM32.8743 12.9219V13.5864H33.5389V12.9219H32.8743ZM33.7272 12.9219V13.5864H34.3918V12.9219H33.7272ZM30.3231 13.7858V14.4504H30.9876V13.7858H30.3231ZM31.1759 13.7858V14.4504H31.8405V13.7858H31.1759ZM32.0251 13.7858V14.4504H32.6897V13.7858H32.0251ZM32.8743 13.7858V14.4504H33.5389V13.7858H32.8743ZM30.3231 14.6497V15.3143H30.9876V14.6497H30.3231ZM31.1759 14.6497V15.3143H31.8405V14.6497H31.1759ZM32.0251 14.6497V15.3143H32.6897V14.6497H32.0251ZM30.3231 15.51V16.1746H30.9876V15.51H30.3231ZM31.1759 15.51V16.1746H31.8405V15.51H31.1759ZM30.3231 16.374V17.0385H30.9876V16.374H30.3231ZM31.1759 16.374V17.0385H31.8405V16.374H31.1759ZM30.3231 17.2379V17.9025H30.9876V17.2379H30.3231ZM30.3231 18.0982V18.7627H30.9876V18.0982H30.3231ZM31.1759 18.0982V18.7627H31.8405V18.0982H31.1759Z" fill="#5A5A5A"/>
</svg>
