<svg width="120" height="40" viewBox="0 0 120 40" fill="none" xmlns="http://www.w3.org/2000/svg">
<path d="M0 4C0 1.79086 1.79086 0 4 0H116C118.209 0 120 1.79086 120 4V36C120 38.2091 118.209 40 116 40H4C1.79086 40 0 38.2091 0 36V4Z" fill="black"/>
<path d="M59.4224 21.2353C57.3048 21.2353 55.6283 22.8235 55.6283 25.0294C55.6283 27.1471 57.3048 28.8235 59.4224 28.8235C61.5401 28.8235 63.2165 27.2353 63.2165 25.0294C63.2165 22.7353 61.5401 21.2353 59.4224 21.2353ZM59.4224 27.2353C58.2753 27.2353 57.3048 26.2647 57.3048 24.9412C57.3048 23.6177 58.2753 22.6471 59.4224 22.6471C60.5695 22.6471 61.5401 23.5294 61.5401 24.9412C61.5401 26.2647 60.5695 27.2353 59.4224 27.2353ZM51.2165 21.2353C49.0989 21.2353 47.4224 22.8235 47.4224 25.0294C47.4224 27.1471 49.0989 28.8235 51.2165 28.8235C53.3342 28.8235 55.0106 27.2353 55.0106 25.0294C55.0106 22.7353 53.3342 21.2353 51.2165 21.2353ZM51.2165 27.2353C50.0695 27.2353 49.0989 26.2647 49.0989 24.9412C49.0989 23.6177 50.0695 22.6471 51.2165 22.6471C52.3636 22.6471 53.3342 23.5294 53.3342 24.9412C53.3342 26.2647 52.3636 27.2353 51.2165 27.2353ZM41.4224 22.3824V23.9706H45.2165C45.1283 24.853 44.7754 25.5588 44.3342 26C43.8048 26.5294 42.9224 27.1471 41.4224 27.1471C39.0401 27.1471 37.2754 25.2941 37.2754 22.9118C37.2754 20.5294 39.1283 18.6765 41.4224 18.6765C42.6577 18.6765 43.6283 19.2059 44.3342 19.8235L45.4812 18.6765C44.5107 17.7941 43.2754 17.0883 41.5107 17.0883C38.3342 17.0883 35.5989 19.7353 35.5989 22.9118C35.5989 26.0882 38.3342 28.7353 41.5107 28.7353C43.2754 28.7353 44.5107 28.2059 45.5695 27.0588C46.6283 26 46.9812 24.5 46.9812 23.353C46.9812 23 46.9812 22.6471 46.893 22.3824H41.4224ZM81.4812 23.6177C81.1283 22.7353 80.2459 21.2353 78.3047 21.2353C76.3636 21.2353 74.7753 22.7353 74.7753 25.0294C74.7753 27.1471 76.3636 28.8235 78.4812 28.8235C80.1577 28.8235 81.2165 27.7647 81.5694 27.1471L80.3341 26.2647C79.893 26.8824 79.3636 27.3235 78.4812 27.3235C77.5989 27.3235 77.0694 26.9706 76.6283 26.1765L81.6577 24.0588L81.4812 23.6177ZM76.3636 24.853C76.3636 23.4412 77.5106 22.6471 78.3047 22.6471C78.9224 22.6471 79.54 23 79.7165 23.4412L76.3636 24.853ZM72.2165 28.4706H73.893V17.4412H72.2165V28.4706ZM69.5695 22.0294C69.1283 21.5883 68.4224 21.1471 67.54 21.1471C65.6871 21.1471 63.9224 22.8235 63.9224 24.9412C63.9224 27.0588 65.5989 28.6471 67.54 28.6471C68.4224 28.6471 69.1283 28.2059 69.4812 27.7647H69.5695V28.2941C69.5695 29.7059 68.7753 30.5 67.54 30.5C66.5695 30.5 65.8636 29.7941 65.6871 29.1765L64.2753 29.7941C64.7165 30.7647 65.7753 32 67.6283 32C69.5695 32 71.1577 30.8529 71.1577 28.1177V21.4118H69.5695V22.0294ZM67.6283 27.2353C66.4812 27.2353 65.5106 26.2647 65.5106 24.9412C65.5106 23.6177 66.4812 22.6471 67.6283 22.6471C68.7753 22.6471 69.6577 23.6177 69.6577 24.9412C69.6577 26.2647 68.7753 27.2353 67.6283 27.2353ZM89.1577 17.4412H85.1871V28.4706H86.8635V24.3235H89.1577C91.0106 24.3235 92.7753 23 92.7753 20.8824C92.7753 18.7647 91.0106 17.4412 89.1577 17.4412ZM89.2459 22.7353H86.8635V18.9412H89.2459C90.4812 18.9412 91.1871 20 91.1871 20.7941C91.0988 21.7647 90.393 22.7353 89.2459 22.7353ZM99.3929 21.1471C98.1576 21.1471 96.9224 21.6765 96.4812 22.8235L97.9812 23.4412C98.3341 22.8235 98.8635 22.6471 99.4812 22.6471C100.364 22.6471 101.158 23.1765 101.246 24.0588V24.1471C100.981 23.9706 100.275 23.7059 99.5694 23.7059C97.9812 23.7059 96.3929 24.5882 96.3929 26.1765C96.3929 27.6765 97.7165 28.6471 99.1282 28.6471C100.275 28.6471 100.805 28.1177 101.246 27.5882H101.334V28.4706H102.922V24.2353C102.746 22.2941 101.246 21.1471 99.3929 21.1471ZM99.2165 27.2353C98.6871 27.2353 97.8929 26.9706 97.8929 26.2647C97.8929 25.3824 98.8635 25.1177 99.6576 25.1177C100.364 25.1177 100.716 25.2941 101.158 25.4706C100.981 26.5294 100.099 27.2353 99.2165 27.2353ZM108.481 21.4118L106.628 26.1765H106.54L104.599 21.4118H102.834L105.746 28.1177L104.069 31.8235H105.746L110.246 21.4118H108.481ZM93.6577 28.4706H95.3341V17.4412H93.6577V28.4706Z" fill="white"/>
<path d="M35.7754 13.4706V8.17649H37.3636C38.1578 8.17649 38.8636 8.44119 39.3048 8.88237C39.8342 9.41178 40.0107 10.0294 40.0107 10.8235C40.0107 11.6177 39.746 12.2353 39.3048 12.7647C38.8636 13.2059 38.1578 13.4706 37.3636 13.4706H35.7754ZM36.4813 12.853H37.4519C38.0695 12.853 38.5107 12.6765 38.8636 12.3235C39.2166 11.9706 39.3931 11.4412 39.3931 10.8235C39.3931 10.2059 39.2166 9.67649 38.8636 9.32355C38.5107 8.9706 37.9813 8.79414 37.4519 8.79414H36.4813V12.853Z" fill="white"/>
<path d="M40.9813 13.4706V8.17649H41.6872V13.4706H40.9813Z" fill="white"/>
<path d="M44.4225 13.5588C44.0695 13.5588 43.6283 13.4706 43.2754 13.2059C42.9225 12.9412 42.6578 12.5882 42.5695 12.1471L43.1872 11.8823C43.2754 12.1471 43.4519 12.4118 43.6283 12.5882C43.893 12.7647 44.1578 12.8529 44.4225 12.8529C44.6872 12.8529 44.9519 12.7647 45.2166 12.5882C45.393 12.4118 45.5695 12.2353 45.5695 11.9706C45.5695 11.7059 45.4813 11.4412 45.2166 11.2647C45.0401 11.0882 44.6872 10.9118 44.246 10.8235C43.8048 10.6471 43.4519 10.4706 43.1872 10.2941C42.9225 10.0294 42.8342 9.7647 42.8342 9.41176C42.8342 9.05882 43.0107 8.70588 43.2754 8.44118C43.5401 8.17647 43.9813 8 44.4225 8C44.8636 8 45.2166 8.08824 45.4813 8.35294C45.746 8.61765 45.9225 8.79412 46.0107 9.05882L45.393 9.32353C45.3048 9.14706 45.2166 8.97059 45.0401 8.88235C44.8636 8.70588 44.5989 8.70588 44.3342 8.70588C44.0695 8.70588 43.893 8.79412 43.6283 8.88235C43.5401 9.05882 43.4519 9.23529 43.4519 9.5C43.4519 9.67647 43.5401 9.85294 43.7166 10.0294C43.893 10.2059 44.1578 10.2941 44.5107 10.3824C44.7754 10.4706 44.9519 10.5588 45.1283 10.6471C45.3048 10.7353 45.4813 10.8235 45.6578 11C45.8342 11.0882 46.0107 11.2647 46.0989 11.5294C46.1872 11.7059 46.2754 11.9706 46.2754 12.2353C46.2754 12.5 46.1872 12.7647 46.0989 12.9412C46.0107 13.1176 45.8342 13.2941 45.6578 13.3823C45.393 13.3823 45.2166 13.4706 45.0401 13.4706C44.8636 13.5588 44.5989 13.5588 44.4225 13.5588Z" fill="white"/>
<path d="M47.8636 13.4706H47.1577V8.17649H48.9225C49.3636 8.17649 49.7166 8.35296 50.0695 8.61766C50.4225 8.88237 50.5989 9.32355 50.5989 9.76472C50.5989 10.2059 50.4225 10.5588 50.0695 10.9118C49.7166 11.1765 49.3636 11.353 48.9225 11.353H47.8636V13.4706ZM47.8636 10.6471H49.0107C49.2754 10.6471 49.5401 10.5588 49.7166 10.3824C49.893 10.2059 49.9813 9.94119 49.9813 9.76472C49.9813 9.50002 49.893 9.32355 49.7166 9.14708C49.5401 8.97061 49.2754 8.88237 49.0107 8.88237H47.8636V10.6471Z" fill="white"/>
<path d="M55.8048 12.7647C55.2754 13.2941 54.6578 13.5588 53.8636 13.5588C53.0695 13.5588 52.4519 13.2941 51.9225 12.7647C51.393 12.2353 51.1283 11.6176 51.1283 10.8235C51.1283 10.0294 51.393 9.41176 51.9225 8.88235C52.4519 8.35293 53.0695 8.08823 53.8636 8.08823C54.6578 8.08823 55.2754 8.35293 55.8048 8.88235C56.3342 9.41176 56.5989 10.0294 56.5989 10.8235C56.5989 11.6176 56.3342 12.2353 55.8048 12.7647ZM52.4519 12.3235C52.8048 12.6765 53.3342 12.9412 53.8636 12.9412C54.393 12.9412 54.9225 12.7647 55.2754 12.3235C55.6283 11.9706 55.893 11.4412 55.893 10.8235C55.893 10.2059 55.7166 9.67646 55.2754 9.32352C54.9225 8.97058 54.393 8.70588 53.8636 8.70588C53.3342 8.70588 52.8048 8.88235 52.4519 9.32352C52.0989 9.67646 51.8342 10.2059 51.8342 10.8235C51.8342 11.4412 52.0107 11.9706 52.4519 12.3235Z" fill="white"/>
<path d="M57.5695 13.4706V8.17649H58.3636L60.9224 12.3235V8.17649H61.6283V13.4706H60.9224L58.1872 9.14708V13.4706H57.5695Z" fill="white"/>
<path d="M62.8636 13.4706V8.17649H63.5695V13.4706H62.8636Z" fill="white"/>
<path d="M64.7165 8.17649H66.6577C67.0989 8.17649 67.4518 8.35296 67.7165 8.61766C67.9812 8.88237 68.1577 9.23531 68.1577 9.67649C68.1577 9.94119 68.0695 10.1177 67.9812 10.3824C67.893 10.5588 67.7165 10.7353 67.4518 10.8235C67.7165 10.9118 67.893 11.0882 68.0695 11.2647C68.2459 11.4412 68.3342 11.7059 68.3342 12.0588C68.3342 12.5 68.1577 12.853 67.893 13.1177C67.5401 13.3824 67.1871 13.5588 66.7459 13.5588H64.7165V8.17649ZM65.4224 10.4706H66.6577C66.9224 10.4706 67.0989 10.3824 67.2754 10.2059C67.4518 10.0294 67.5401 9.85296 67.5401 9.67649C67.5401 9.50002 67.3636 9.23531 67.2754 9.05884C67.0989 8.88237 66.9224 8.79414 66.6577 8.79414H65.4224V10.4706ZM65.4224 12.853H66.8342C67.0989 12.853 67.2754 12.7647 67.4518 12.5882C67.6283 12.4118 67.7165 12.2353 67.7165 11.9706C67.7165 11.7941 67.6283 11.5294 67.4518 11.353C67.2754 11.1765 67.0989 11.0882 66.8342 11.0882H65.5107V12.853H65.4224Z" fill="white"/>
<path d="M69.2166 13.4706V8.17649H69.9224V12.853H72.2166V13.4706H69.2166Z" fill="white"/>
<path d="M76.1871 8.79414H73.8048V10.4706H76.0107V11.0882H73.8048V12.7647H76.1871V13.4706H73.0989V8.17649H76.1871V8.79414Z" fill="white"/>
<path d="M82.0989 8.79414H79.7165V10.4706H81.9224V11.0882H79.7165V12.7647H82.0989V13.4706H79.0107V8.17649H82.0989V8.79414Z" fill="white"/>
<path d="M83.1577 13.4706V8.17649H83.9518L86.5106 12.3235V8.17649H87.2165V13.4706H86.5106L83.7754 9.14708V13.4706H83.1577Z" fill="white"/>
<path d="M59.4224 21.2353C57.3048 21.2353 55.6283 22.8235 55.6283 25.0294C55.6283 27.1471 57.3048 28.8235 59.4224 28.8235C61.5401 28.8235 63.2165 27.2353 63.2165 25.0294C63.2165 22.7353 61.5401 21.2353 59.4224 21.2353ZM59.4224 27.2353C58.2753 27.2353 57.3048 26.2647 57.3048 24.9412C57.3048 23.6177 58.2753 22.6471 59.4224 22.6471C60.5695 22.6471 61.5401 23.5294 61.5401 24.9412C61.5401 26.2647 60.5695 27.2353 59.4224 27.2353ZM51.2165 21.2353C49.0989 21.2353 47.4224 22.8235 47.4224 25.0294C47.4224 27.1471 49.0989 28.8235 51.2165 28.8235C53.3342 28.8235 55.0106 27.2353 55.0106 25.0294C55.0106 22.7353 53.3342 21.2353 51.2165 21.2353ZM51.2165 27.2353C50.0695 27.2353 49.0989 26.2647 49.0989 24.9412C49.0989 23.6177 50.0695 22.6471 51.2165 22.6471C52.3636 22.6471 53.3342 23.5294 53.3342 24.9412C53.3342 26.2647 52.3636 27.2353 51.2165 27.2353ZM41.4224 22.3824V23.9706H45.2165C45.1283 24.853 44.7754 25.5588 44.3342 26C43.8048 26.5294 42.9224 27.1471 41.4224 27.1471C39.0401 27.1471 37.2754 25.2941 37.2754 22.9118C37.2754 20.5294 39.1283 18.6765 41.4224 18.6765C42.6577 18.6765 43.6283 19.2059 44.3342 19.8235L45.4812 18.6765C44.5107 17.7941 43.2754 17.0883 41.5107 17.0883C38.3342 17.0883 35.5989 19.7353 35.5989 22.9118C35.5989 26.0882 38.3342 28.7353 41.5107 28.7353C43.2754 28.7353 44.5107 28.2059 45.5695 27.0588C46.6283 26 46.9812 24.5 46.9812 23.353C46.9812 23 46.9812 22.6471 46.893 22.3824H41.4224ZM81.4812 23.6177C81.1283 22.7353 80.2459 21.2353 78.3047 21.2353C76.3636 21.2353 74.7753 22.7353 74.7753 25.0294C74.7753 27.1471 76.3636 28.8235 78.4812 28.8235C80.1577 28.8235 81.2165 27.7647 81.5694 27.1471L80.3341 26.2647C79.893 26.8824 79.3636 27.3235 78.4812 27.3235C77.5989 27.3235 77.0694 26.9706 76.6283 26.1765L81.6577 24.0588L81.4812 23.6177ZM76.3636 24.853C76.3636 23.4412 77.5106 22.6471 78.3047 22.6471C78.9224 22.6471 79.54 23 79.7165 23.4412L76.3636 24.853ZM72.2165 28.4706H73.893V17.4412H72.2165V28.4706ZM69.5695 22.0294C69.1283 21.5883 68.4224 21.1471 67.54 21.1471C65.6871 21.1471 63.9224 22.8235 63.9224 24.9412C63.9224 27.0588 65.5989 28.6471 67.54 28.6471C68.4224 28.6471 69.1283 28.2059 69.4812 27.7647H69.5695V28.2941C69.5695 29.7059 68.7753 30.5 67.54 30.5C66.5695 30.5 65.8636 29.7941 65.6871 29.1765L64.2753 29.7941C64.7165 30.7647 65.7753 32 67.6283 32C69.5695 32 71.1577 30.8529 71.1577 28.1177V21.4118H69.5695V22.0294ZM67.6283 27.2353C66.4812 27.2353 65.5106 26.2647 65.5106 24.9412C65.5106 23.6177 66.4812 22.6471 67.6283 22.6471C68.7753 22.6471 69.6577 23.6177 69.6577 24.9412C69.6577 26.2647 68.7753 27.2353 67.6283 27.2353ZM89.1577 17.4412H85.1871V28.4706H86.8635V24.3235H89.1577C91.0106 24.3235 92.7753 23 92.7753 20.8824C92.7753 18.7647 91.0106 17.4412 89.1577 17.4412ZM89.2459 22.7353H86.8635V18.9412H89.2459C90.4812 18.9412 91.1871 20 91.1871 20.7941C91.0988 21.7647 90.393 22.7353 89.2459 22.7353ZM99.3929 21.1471C98.1576 21.1471 96.9224 21.6765 96.4812 22.8235L97.9812 23.4412C98.3341 22.8235 98.8635 22.6471 99.4812 22.6471C100.364 22.6471 101.158 23.1765 101.246 24.0588V24.1471C100.981 23.9706 100.275 23.7059 99.5694 23.7059C97.9812 23.7059 96.3929 24.5882 96.3929 26.1765C96.3929 27.6765 97.7165 28.6471 99.1282 28.6471C100.275 28.6471 100.805 28.1177 101.246 27.5882H101.334V28.4706H102.922V24.2353C102.746 22.2941 101.246 21.1471 99.3929 21.1471ZM99.2165 27.2353C98.6871 27.2353 97.8929 26.9706 97.8929 26.2647C97.8929 25.3824 98.8635 25.1177 99.6576 25.1177C100.364 25.1177 100.716 25.2941 101.158 25.4706C100.981 26.5294 100.099 27.2353 99.2165 27.2353ZM108.481 21.4118L106.628 26.1765H106.54L104.599 21.4118H102.834L105.746 28.1177L104.069 31.8235H105.746L110.246 21.4118H108.481ZM93.6577 28.4706H95.3341V17.4412H93.6577V28.4706Z" stroke="white" stroke-width="0.170985" stroke-miterlimit="10"/>
<path d="M35.7754 13.4706V8.17649H37.3636C38.1578 8.17649 38.8636 8.44119 39.3048 8.88237C39.8342 9.41178 40.0107 10.0294 40.0107 10.8235C40.0107 11.6177 39.746 12.2353 39.3048 12.7647C38.8636 13.2059 38.1578 13.4706 37.3636 13.4706H35.7754ZM36.4813 12.853H37.4519C38.0695 12.853 38.5107 12.6765 38.8636 12.3235C39.2166 11.9706 39.3931 11.4412 39.3931 10.8235C39.3931 10.2059 39.2166 9.67649 38.8636 9.32355C38.5107 8.9706 37.9813 8.79414 37.4519 8.79414H36.4813V12.853Z" stroke="white" stroke-width="0.170985" stroke-miterlimit="10"/>
<path d="M40.9813 13.4706V8.17649H41.6872V13.4706H40.9813Z" stroke="white" stroke-width="0.170985" stroke-miterlimit="10"/>
<path d="M44.4225 13.5588C44.0695 13.5588 43.6283 13.4706 43.2754 13.2059C42.9225 12.9412 42.6578 12.5882 42.5695 12.1471L43.1872 11.8823C43.2754 12.1471 43.4519 12.4118 43.6283 12.5882C43.893 12.7647 44.1578 12.8529 44.4225 12.8529C44.6872 12.8529 44.9519 12.7647 45.2166 12.5882C45.393 12.4118 45.5695 12.2353 45.5695 11.9706C45.5695 11.7059 45.4813 11.4412 45.2166 11.2647C45.0401 11.0882 44.6872 10.9118 44.246 10.8235C43.8048 10.6471 43.4519 10.4706 43.1872 10.2941C42.9225 10.0294 42.8342 9.7647 42.8342 9.41176C42.8342 9.05882 43.0107 8.70588 43.2754 8.44118C43.5401 8.17647 43.9813 8 44.4225 8C44.8636 8 45.2166 8.08824 45.4813 8.35294C45.746 8.61765 45.9225 8.79412 46.0107 9.05882L45.393 9.32353C45.3048 9.14706 45.2166 8.97059 45.0401 8.88235C44.8636 8.70588 44.5989 8.70588 44.3342 8.70588C44.0695 8.70588 43.893 8.79412 43.6283 8.88235C43.5401 9.05882 43.4519 9.23529 43.4519 9.5C43.4519 9.67647 43.5401 9.85294 43.7166 10.0294C43.893 10.2059 44.1578 10.2941 44.5107 10.3824C44.7754 10.4706 44.9519 10.5588 45.1283 10.6471C45.3048 10.7353 45.4813 10.8235 45.6578 11C45.8342 11.0882 46.0107 11.2647 46.0989 11.5294C46.1872 11.7059 46.2754 11.9706 46.2754 12.2353C46.2754 12.5 46.1872 12.7647 46.0989 12.9412C46.0107 13.1176 45.8342 13.2941 45.6578 13.3823C45.393 13.3823 45.2166 13.4706 45.0401 13.4706C44.8636 13.5588 44.5989 13.5588 44.4225 13.5588Z" stroke="white" stroke-width="0.170985" stroke-miterlimit="10"/>
<path d="M47.8636 13.4706H47.1577V8.17649H48.9225C49.3636 8.17649 49.7166 8.35296 50.0695 8.61766C50.4225 8.88237 50.5989 9.32355 50.5989 9.76472C50.5989 10.2059 50.4225 10.5588 50.0695 10.9118C49.7166 11.1765 49.3636 11.353 48.9225 11.353H47.8636V13.4706ZM47.8636 10.6471H49.0107C49.2754 10.6471 49.5401 10.5588 49.7166 10.3824C49.893 10.2059 49.9813 9.94119 49.9813 9.76472C49.9813 9.50002 49.893 9.32355 49.7166 9.14708C49.5401 8.97061 49.2754 8.88237 49.0107 8.88237H47.8636V10.6471Z" stroke="white" stroke-width="0.170985" stroke-miterlimit="10"/>
<path d="M55.8048 12.7647C55.2754 13.2941 54.6578 13.5588 53.8636 13.5588C53.0695 13.5588 52.4519 13.2941 51.9225 12.7647C51.393 12.2353 51.1283 11.6176 51.1283 10.8235C51.1283 10.0294 51.393 9.41176 51.9225 8.88235C52.4519 8.35293 53.0695 8.08823 53.8636 8.08823C54.6578 8.08823 55.2754 8.35293 55.8048 8.88235C56.3342 9.41176 56.5989 10.0294 56.5989 10.8235C56.5989 11.6176 56.3342 12.2353 55.8048 12.7647ZM52.4519 12.3235C52.8048 12.6765 53.3342 12.9412 53.8636 12.9412C54.393 12.9412 54.9225 12.7647 55.2754 12.3235C55.6283 11.9706 55.893 11.4412 55.893 10.8235C55.893 10.2059 55.7166 9.67646 55.2754 9.32352C54.9225 8.97058 54.393 8.70588 53.8636 8.70588C53.3342 8.70588 52.8048 8.88235 52.4519 9.32352C52.0989 9.67646 51.8342 10.2059 51.8342 10.8235C51.8342 11.4412 52.0107 11.9706 52.4519 12.3235Z" stroke="white" stroke-width="0.170985" stroke-miterlimit="10"/>
<path d="M57.5695 13.4706V8.17649H58.3636L60.9224 12.3235V8.17649H61.6283V13.4706H60.9224L58.1872 9.14708V13.4706H57.5695Z" stroke="white" stroke-width="0.170985" stroke-miterlimit="10"/>
<path d="M62.8636 13.4706V8.17649H63.5695V13.4706H62.8636Z" stroke="white" stroke-width="0.170985" stroke-miterlimit="10"/>
<path d="M64.7165 8.17649H66.6577C67.0989 8.17649 67.4518 8.35296 67.7165 8.61766C67.9812 8.88237 68.1577 9.23531 68.1577 9.67649C68.1577 9.94119 68.0695 10.1177 67.9812 10.3824C67.893 10.5588 67.7165 10.7353 67.4518 10.8235C67.7165 10.9118 67.893 11.0882 68.0695 11.2647C68.2459 11.4412 68.3342 11.7059 68.3342 12.0588C68.3342 12.5 68.1577 12.853 67.893 13.1177C67.5401 13.3824 67.1871 13.5588 66.7459 13.5588H64.7165V8.17649ZM65.4224 10.4706H66.6577C66.9224 10.4706 67.0989 10.3824 67.2754 10.2059C67.4518 10.0294 67.5401 9.85296 67.5401 9.67649C67.5401 9.50002 67.3636 9.23531 67.2754 9.05884C67.0989 8.88237 66.9224 8.79414 66.6577 8.79414H65.4224V10.4706ZM65.4224 12.853H66.8342C67.0989 12.853 67.2754 12.7647 67.4518 12.5882C67.6283 12.4118 67.7165 12.2353 67.7165 11.9706C67.7165 11.7941 67.6283 11.5294 67.4518 11.353C67.2754 11.1765 67.0989 11.0882 66.8342 11.0882H65.5107V12.853H65.4224Z" stroke="white" stroke-width="0.170985" stroke-miterlimit="10"/>
<path d="M69.2166 13.4706V8.17649H69.9224V12.853H72.2166V13.4706H69.2166Z" stroke="white" stroke-width="0.170985" stroke-miterlimit="10"/>
<path d="M76.1871 8.79414H73.8048V10.4706H76.0107V11.0882H73.8048V12.7647H76.1871V13.4706H73.0989V8.17649H76.1871V8.79414Z" stroke="white" stroke-width="0.170985" stroke-miterlimit="10"/>
<path d="M82.0989 8.79414H79.7165V10.4706H81.9224V11.0882H79.7165V12.7647H82.0989V13.4706H79.0107V8.17649H82.0989V8.79414Z" stroke="white" stroke-width="0.170985" stroke-miterlimit="10"/>
<path d="M83.1577 13.4706V8.17649H83.9518L86.5106 12.3235V8.17649H87.2165V13.4706H86.5106L83.7754 9.14708V13.4706H83.1577Z" stroke="white" stroke-width="0.170985" stroke-miterlimit="10"/>
<path d="M10.4305 8.37224C10.1591 8.66153 10 9.10947 10 9.67873V30.3213C10 30.8999 10.1591 31.3478 10.4305 31.6278L10.496 31.6931L22.0908 20.14V20V19.86L10.496 8.30692L10.4305 8.37224Z" fill="url(#paint0_linear_790_354)"/>
<path d="M25.9559 23.9942L22.0909 20.14V20V19.86L25.9559 16.0059L26.0401 16.0526L30.6163 18.6469C31.9264 19.3841 31.9264 20.5973 30.6163 21.3438L26.0401 23.9382L25.9559 23.9942Z" fill="url(#paint1_linear_790_354)"/>
<path d="M26.0399 23.9381L22.0908 20L10.4304 31.6278C10.8609 32.085 11.5721 32.141 12.3769 31.6838L26.0399 23.9381Z" fill="url(#paint2_linear_790_354)"/>
<path d="M26.0401 16.0619L12.3677 8.31624C11.5629 7.85897 10.8517 7.91496 10.4212 8.37223L22.0909 20L26.0401 16.0619Z" fill="url(#paint3_linear_790_354)"/>
<defs>
<linearGradient id="paint0_linear_790_354" x1="17.0126" y1="-5.7249" x2="-1.54857" y2="-0.777427" gradientUnits="userSpaceOnUse">
<stop stop-color="#00A0FF"/>
<stop offset="0.00657445" stop-color="#00A1FF"/>
<stop offset="0.2601" stop-color="#00BEFF"/>
<stop offset="0.5122" stop-color="#00D2FF"/>
<stop offset="0.7604" stop-color="#00DFFF"/>
<stop offset="1" stop-color="#00E3FF"/>
</linearGradient>
<linearGradient id="paint1_linear_790_354" x1="32.3236" y1="10.489" x2="9.67959" y2="10.489" gradientUnits="userSpaceOnUse">
<stop stop-color="#FFE000"/>
<stop offset="0.4087" stop-color="#FFBD00"/>
<stop offset="0.7754" stop-color="#FFA500"/>
<stop offset="1" stop-color="#FF9C00"/>
</linearGradient>
<linearGradient id="paint2_linear_790_354" x1="10.0808" y1="13.9563" x2="-4.77029" y2="39.0151" gradientUnits="userSpaceOnUse">
<stop stop-color="#FF3A44"/>
<stop offset="1" stop-color="#C31162"/>
</linearGradient>
<linearGradient id="paint3_linear_790_354" x1="1.3177" y1="5.1537" x2="7.94262" y2="16.3455" gradientUnits="userSpaceOnUse">
<stop stop-color="#32A071"/>
<stop offset="0.0685" stop-color="#2DA771"/>
<stop offset="0.4762" stop-color="#15CF74"/>
<stop offset="0.8009" stop-color="#06E775"/>
<stop offset="1" stop-color="#00F076"/>
</linearGradient>
</defs>
</svg>
