<svg width="120" height="40" viewBox="0 0 120 40" fill="none" xmlns="http://www.w3.org/2000/svg">
<path d="M0 4C0 1.79086 1.79086 0 4 0H116C118.209 0 120 1.79086 120 4V36C120 38.2091 118.209 40 116 40H4C1.79086 40 0 38.2091 0 36V4Z" fill="black"/>
<path d="M42.9027 26.0154H38.4428L37.3718 29.1779H35.4827L39.7071 17.4774H41.6697L45.8941 29.1779H43.9728L42.9027 26.0154ZM38.9047 24.5561H42.4399L40.6972 19.4235H40.6484L38.9047 24.5561Z" fill="white"/>
<path d="M55.0173 24.9131C55.0173 27.564 53.5984 29.2672 51.4573 29.2672C50.9149 29.2956 50.3755 29.1706 49.9008 28.9067C49.4261 28.6427 49.0353 28.2504 48.7732 27.7747H48.7327V32H46.9817V20.6473H48.6766V22.0662H48.7088C48.983 21.5927 49.3803 21.2025 49.8586 20.9369C50.3369 20.6714 50.8783 20.5404 51.4251 20.5581C53.5901 20.5581 55.0173 22.2695 55.0173 24.9131ZM53.2175 24.9131C53.2175 23.186 52.325 22.0505 50.9632 22.0505C49.6253 22.0505 48.7254 23.2099 48.7254 24.9131C48.7254 26.6319 49.6253 27.783 50.9632 27.783C52.325 27.783 53.2175 26.6558 53.2175 24.9131Z" fill="white"/>
<path d="M64.4064 24.9131C64.4064 27.564 62.9875 29.2672 60.8464 29.2672C60.304 29.2956 59.7646 29.1706 59.2899 28.9067C58.8152 28.6427 58.4244 28.2504 58.1623 27.7747H58.1218V32H56.3708V20.6473H58.0657V22.0662H58.0979C58.372 21.5927 58.7694 21.2025 59.2477 20.9369C59.726 20.6714 60.2673 20.5404 60.8141 20.5581C62.9793 20.5581 64.4064 22.2695 64.4064 24.9131ZM62.6066 24.9131C62.6066 23.186 61.7141 22.0505 60.3523 22.0505C59.0144 22.0505 58.1145 23.2099 58.1145 24.9131C58.1145 26.6319 59.0144 27.783 60.3523 27.783C61.7141 27.783 62.6066 26.6558 62.6066 24.9131Z" fill="white"/>
<path d="M70.6118 25.9179C70.7416 27.0782 71.8687 27.84 73.409 27.84C74.885 27.84 75.9468 27.0781 75.9468 26.0319C75.9468 25.1238 75.3064 24.58 73.79 24.2073L72.2736 23.842C70.1251 23.323 69.1276 22.3183 69.1276 20.6878C69.1276 18.669 70.887 17.2823 73.3851 17.2823C75.8575 17.2823 77.5524 18.669 77.6095 20.6878H75.8419C75.7361 19.5201 74.7708 18.8153 73.3603 18.8153C71.9497 18.8153 70.9845 19.5284 70.9845 20.5663C70.9845 21.3935 71.601 21.8803 73.1091 22.2529L74.3982 22.5694C76.7988 23.1371 77.7962 24.1015 77.7962 25.8129C77.7962 28.0019 76.0526 29.3729 73.2793 29.3729C70.6845 29.3729 68.9325 28.0341 68.8194 25.9178L70.6118 25.9179Z" fill="white"/>
<path d="M81.5753 18.6285V20.6473H83.1975V22.034H81.5753V26.7368C81.5753 27.4674 81.9001 27.8079 82.6132 27.8079C82.8058 27.8045 82.998 27.791 83.1892 27.7673V29.1457C82.8686 29.2056 82.5427 29.2327 82.2166 29.2267C80.4895 29.2267 79.816 28.578 79.816 26.9236V22.034H78.5756V20.6473H79.8159V18.6285H81.5753Z" fill="white"/>
<path d="M84.137 24.9131C84.137 22.2291 85.7178 20.5424 88.1828 20.5424C90.6562 20.5424 92.2296 22.229 92.2296 24.9131C92.2296 27.6045 90.6645 29.2838 88.1828 29.2838C85.7021 29.2838 84.137 27.6045 84.137 24.9131ZM90.4455 24.9131C90.4455 23.0719 89.6017 21.9852 88.1828 21.9852C86.764 21.9852 85.9211 23.0802 85.9211 24.9131C85.9211 26.7617 86.764 27.8401 88.1828 27.8401C89.6017 27.8401 90.4455 26.7617 90.4455 24.9131Z" fill="white"/>
<path d="M93.6733 20.6473H95.3433V22.0993H95.3839C95.4968 21.6458 95.7625 21.2451 96.1362 20.9644C96.5099 20.6837 96.9688 20.5402 97.4358 20.5581C97.6376 20.5574 97.8388 20.5793 98.0357 20.6234V22.2612C97.7809 22.1834 97.5152 22.1477 97.2489 22.1554C96.9946 22.1451 96.741 22.19 96.5056 22.2869C96.2701 22.3838 96.0585 22.5306 95.8852 22.717C95.7118 22.9035 95.5809 23.1253 95.5013 23.3671C95.4218 23.6089 95.3955 23.8651 95.4243 24.1181V29.1779H93.6733L93.6733 20.6473Z" fill="white"/>
<path d="M106.109 26.6724C105.873 28.221 104.365 29.2838 102.436 29.2838C99.9542 29.2838 98.4138 27.6211 98.4138 24.9536C98.4138 22.2778 99.9624 20.5424 102.362 20.5424C104.722 20.5424 106.207 22.1637 106.207 24.7502V25.3502H100.181V25.456C100.154 25.7699 100.193 26.0862 100.297 26.3838C100.401 26.6814 100.566 26.9535 100.784 27.182C101.001 27.4105 101.264 27.5903 101.556 27.7093C101.847 27.8283 102.161 27.8838 102.476 27.8723C102.89 27.911 103.305 27.8152 103.66 27.599C104.015 27.3828 104.291 27.0578 104.446 26.6724L106.109 26.6724ZM100.19 24.1264H104.455C104.47 23.8441 104.427 23.5616 104.329 23.2966C104.23 23.0317 104.078 22.79 103.881 22.5867C103.685 22.3834 103.449 22.2229 103.187 22.1152C102.926 22.0076 102.645 21.9552 102.362 21.9613C102.077 21.9596 101.794 22.0144 101.53 22.1225C101.267 22.2306 101.027 22.3899 100.825 22.5912C100.623 22.7925 100.463 23.0318 100.354 23.2953C100.245 23.5588 100.189 23.8412 100.19 24.1264Z" fill="white"/>
<path d="M36.4254 11.4832C36.4254 9.65993 37.3952 8.53368 38.9576 8.53368C39.5207 8.50579 40.0738 8.69067 40.5069 9.05161C40.94 9.41255 41.2216 9.92316 41.2957 10.4821H40.4262C40.3532 10.1509 40.1662 9.8558 39.8977 9.6485C39.6293 9.4412 39.2965 9.33484 38.9576 9.34801C37.9482 9.34801 37.317 10.1702 37.317 11.4832C37.317 12.7926 37.9482 13.6142 38.9613 13.6142C39.2878 13.6387 39.6127 13.5486 39.88 13.3595C40.1473 13.1705 40.3404 12.8942 40.4262 12.5782H41.2957C41.2109 13.1238 40.9234 13.6173 40.4907 13.9603C40.058 14.3033 39.5119 14.4705 38.9613 14.4286C37.3989 14.4286 36.4254 13.3028 36.4254 11.4832Z" fill="white"/>
<path d="M42.2508 12.1692C42.2241 11.8903 42.256 11.609 42.3444 11.3432C42.4329 11.0775 42.5759 10.8331 42.7642 10.6258C42.9526 10.4186 43.1823 10.253 43.4384 10.1396C43.6946 10.0263 43.9716 9.96777 44.2516 9.96777C44.5317 9.96777 44.8087 10.0263 45.0649 10.1396C45.321 10.253 45.5507 10.4186 45.7391 10.6258C45.9274 10.8331 46.0704 11.0775 46.1589 11.3432C46.2473 11.609 46.2792 11.8903 46.2525 12.1692C46.2797 12.4483 46.2482 12.73 46.16 12.9962C46.0718 13.2624 45.9289 13.5072 45.7404 13.7149C45.552 13.9225 45.3222 14.0885 45.0658 14.2021C44.8094 14.3156 44.5321 14.3743 44.2516 14.3743C43.9712 14.3743 43.6939 14.3156 43.4375 14.2021C43.1811 14.0885 42.9513 13.9225 42.7629 13.7149C42.5744 13.5072 42.4315 13.2624 42.3433 12.9962C42.2551 12.73 42.2236 12.4483 42.2508 12.1692ZM45.3912 12.1692C45.3912 11.2495 44.9781 10.7117 44.253 10.7117C43.5252 10.7117 43.1158 11.2495 43.1158 12.1692C43.1158 13.0962 43.5252 13.6299 44.253 13.6299C44.9781 13.6299 45.3912 13.0925 45.3912 12.1692Z" fill="white"/>
<path d="M47.376 10.0496H48.182V10.7236H48.2446C48.3507 10.4815 48.5298 10.2786 48.7567 10.1431C48.9837 10.0076 49.2472 9.94629 49.5107 9.96771C49.7171 9.95219 49.9244 9.98332 50.1172 10.0588C50.31 10.1343 50.4833 10.2521 50.6243 10.4037C50.7654 10.5552 50.8705 10.7366 50.9319 10.9343C50.9934 11.132 51.0095 11.341 50.9792 11.5457V14.2923H50.1419V11.756C50.1419 11.0742 49.8456 10.7351 49.2264 10.7351C49.0862 10.7286 48.9463 10.7524 48.8162 10.805C48.6861 10.8576 48.569 10.9378 48.4727 11.0399C48.3765 11.142 48.3035 11.2637 48.2587 11.3967C48.214 11.5297 48.1985 11.6708 48.2133 11.8103V14.2924H47.376V10.0496Z" fill="white"/>
<path d="M53.8252 9.96772C54.7794 9.96772 55.4033 10.4117 55.4852 11.1598H54.6819C54.6046 10.8483 54.3 10.6495 53.8252 10.6495C53.3578 10.6495 53.0027 10.8713 53.0027 11.2025C53.0027 11.456 53.2171 11.6157 53.6771 11.721L54.3819 11.8844C55.1889 12.0716 55.5671 12.4185 55.5671 13.0419C55.5671 13.8406 54.8227 14.3743 53.8096 14.3743C52.8002 14.3743 52.1423 13.9183 52.0678 13.1666H52.9061C52.9783 13.3455 53.1085 13.495 53.2759 13.591C53.4433 13.687 53.638 13.7241 53.829 13.6961C54.3507 13.6961 54.7215 13.4624 54.7215 13.1233C54.7215 12.8703 54.5227 12.7065 54.0976 12.6053L53.3578 12.4337C52.5509 12.2428 52.1773 11.8807 52.1773 11.2495C52.1773 10.4973 52.8665 9.96772 53.8252 9.96772Z" fill="white"/>
<path d="M56.6243 9.34018L57.6024 8H58.5842L57.4892 9.34018H56.6243ZM56.7108 10.0496H57.5445V14.2924H56.7108V10.0496Z" fill="white"/>
<path d="M58.8483 14.717H59.7049C59.7758 15.0248 60.13 15.2236 60.695 15.2236C61.3925 15.2236 61.8056 14.8923 61.8056 14.3315V13.5172H61.743C61.6117 13.7451 61.4199 13.9323 61.1888 14.0581C60.9578 14.1838 60.6964 14.2433 60.4337 14.2298C59.3507 14.2298 58.6808 13.3925 58.6808 12.1222C58.6808 10.8286 59.358 9.97922 60.442 9.97922C60.7113 9.96985 60.978 10.0347 61.213 10.1666C61.4479 10.2985 61.6421 10.4925 61.7743 10.7273H61.8406V10.0496H62.6429V14.3273C62.6429 15.2976 61.8829 15.9132 60.683 15.9132C59.623 15.9132 58.9375 15.4379 58.8483 14.717ZM61.8213 12.1181C61.8213 11.2729 61.3842 10.7314 60.6711 10.7314C59.9506 10.7314 59.5457 11.2729 59.5457 12.1181C59.5457 12.9637 59.9506 13.5052 60.6711 13.5052C61.3888 13.5052 61.8213 12.9678 61.8213 12.1181Z" fill="white"/>
<path d="M67.5542 14.2924H66.7472V13.6184H66.681C66.5737 13.863 66.3922 14.0676 66.1621 14.2033C65.9321 14.3389 65.6652 14.3988 65.3992 14.3743C65.194 14.3888 64.9881 14.3573 64.7967 14.2819C64.6053 14.2065 64.4332 14.0892 64.293 13.9386C64.1528 13.788 64.0481 13.608 63.9866 13.4116C63.9251 13.2153 63.9084 13.0077 63.9376 12.8041V10.0496H64.7763V12.586C64.7763 13.2715 65.0524 13.599 65.6679 13.599C65.8106 13.6126 65.9546 13.5941 66.0892 13.5449C66.2239 13.4958 66.3459 13.4172 66.4463 13.3148C66.5468 13.2125 66.6231 13.0891 66.6697 12.9535C66.7164 12.8179 66.7321 12.6737 66.7159 12.5312V10.0496H67.5542V14.2924Z" fill="white"/>
<path d="M72.476 13.1468C72.3623 13.5346 72.1158 13.87 71.7797 14.0944C71.4436 14.3188 71.0393 14.4178 70.6376 14.3743C70.3581 14.3816 70.0803 14.3281 69.8235 14.2174C69.5668 14.1066 69.3372 13.9413 69.1507 13.733C68.9642 13.5246 68.8253 13.2782 68.7437 13.0107C68.662 12.7433 68.6395 12.4613 68.6777 12.1843C68.6405 11.9065 68.6634 11.6239 68.7449 11.3557C68.8264 11.0874 68.9645 10.8398 69.15 10.6297C69.3355 10.4195 69.564 10.2516 69.82 10.1374C70.076 10.0232 70.3536 9.96532 70.6339 9.96771C71.8144 9.96771 72.5266 10.7743 72.5266 12.1066V12.3987H69.5306V12.4457C69.5175 12.6014 69.5371 12.7581 69.5881 12.9058C69.6391 13.0535 69.7204 13.1889 69.8268 13.3033C69.9332 13.4178 70.0623 13.5087 70.2059 13.5703C70.3495 13.6319 70.5043 13.6629 70.6606 13.6611C70.8609 13.6852 71.0638 13.6491 71.2435 13.5575C71.4233 13.4659 71.5717 13.323 71.67 13.1468L72.476 13.1468ZM69.5306 11.7795H71.6736C71.6842 11.6371 71.6648 11.494 71.6168 11.3596C71.5688 11.2251 71.4932 11.1022 71.3949 10.9987C71.2965 10.8951 71.1776 10.8134 71.0457 10.7585C70.9139 10.7037 70.772 10.6771 70.6293 10.6804C70.4845 10.6785 70.3407 10.7057 70.2066 10.7603C70.0724 10.8149 69.9506 10.8958 69.8482 10.9983C69.7458 11.1007 69.665 11.2226 69.6104 11.3568C69.5559 11.4909 69.5288 11.6347 69.5306 11.7795Z" fill="white"/>
<path d="M73.6897 8.39335H74.527V14.2924H73.6897V8.39335Z" fill="white"/>
<path d="M75.691 12.1692C75.6643 11.8903 75.6962 11.609 75.7846 11.3432C75.873 11.0775 76.016 10.8331 76.2044 10.6258C76.3928 10.4186 76.6224 10.253 76.8786 10.1396C77.1347 10.0263 77.4117 9.96777 77.6918 9.96777C77.9719 9.96777 78.2489 10.0263 78.5051 10.1396C78.7612 10.253 78.9908 10.4186 79.1792 10.6258C79.3676 10.8331 79.5106 11.0775 79.599 11.3432C79.6874 11.609 79.7193 11.8903 79.6927 12.1692C79.7198 12.4483 79.6883 12.73 79.6001 12.9962C79.512 13.2624 79.3691 13.5072 79.1806 13.7149C78.9922 13.9225 78.7624 14.0885 78.506 14.2021C78.2496 14.3156 77.9722 14.3743 77.6918 14.3743C77.4114 14.3743 77.1341 14.3156 76.8777 14.2021C76.6213 14.0885 76.3915 13.9225 76.203 13.7149C76.0146 13.5072 75.8717 13.2624 75.7835 12.9962C75.6953 12.73 75.6638 12.4483 75.691 12.1692ZM78.8314 12.1692C78.8314 11.2495 78.4183 10.7117 77.6932 10.7117C76.9654 10.7117 76.5559 11.2495 76.5559 12.1692C76.5559 13.0962 76.9654 13.6299 77.6932 13.6299C78.4183 13.6299 78.8314 13.0925 78.8314 12.1692Z" fill="white"/>
<path d="M86.706 13.1468C86.5922 13.5346 86.3457 13.87 86.0096 14.0944C85.6736 14.3188 85.2693 14.4178 84.8675 14.3743C84.588 14.3816 84.3102 14.3281 84.0535 14.2174C83.7967 14.1066 83.5671 13.9413 83.3806 13.733C83.1942 13.5246 83.0553 13.2782 82.9736 13.0107C82.8919 12.7433 82.8694 12.4613 82.9076 12.1843C82.8704 11.9065 82.8933 11.6239 82.9748 11.3557C83.0563 11.0874 83.1945 10.8398 83.38 10.6297C83.5655 10.4195 83.7939 10.2516 84.0499 10.1374C84.306 10.0232 84.5835 9.96532 84.8638 9.96771C86.0444 9.96771 86.7566 10.7743 86.7566 12.1066V12.3987H83.7606V12.4457C83.7475 12.6014 83.7671 12.7581 83.8181 12.9058C83.8691 13.0535 83.9504 13.1889 84.0567 13.3033C84.1631 13.4178 84.2923 13.5087 84.4358 13.5703C84.5794 13.6319 84.7343 13.6629 84.8905 13.6611C85.0908 13.6852 85.2938 13.6491 85.4735 13.5575C85.6532 13.4659 85.8017 13.323 85.8999 13.1468L86.706 13.1468ZM83.7606 11.7795H85.9037C85.9142 11.6371 85.8949 11.494 85.8468 11.3596C85.7988 11.2251 85.7232 11.1022 85.6249 10.9987C85.5265 10.8951 85.4076 10.8134 85.2757 10.7585C85.1439 10.7037 85.002 10.6771 84.8593 10.6804C84.7145 10.6785 84.5707 10.7057 84.4366 10.7603C84.3024 10.8149 84.1806 10.8958 84.0782 10.9982C83.9758 11.1007 83.8949 11.2226 83.8404 11.3567C83.7859 11.4909 83.7587 11.6347 83.7606 11.7795Z" fill="white"/>
<path d="M87.881 10.0496H88.687V10.7236H88.7496C88.8558 10.4815 89.0348 10.2786 89.2617 10.1431C89.4887 10.0076 89.7523 9.94629 90.0157 9.96771C90.2222 9.95219 90.4294 9.98332 90.6222 10.0588C90.815 10.1343 90.9883 10.2521 91.1294 10.4037C91.2704 10.5552 91.3755 10.7366 91.437 10.9343C91.4984 11.132 91.5146 11.341 91.4843 11.5457V14.2923H90.6469V11.756C90.6469 11.0742 90.3506 10.7351 89.7314 10.7351C89.5912 10.7286 89.4513 10.7524 89.3212 10.805C89.1912 10.8576 89.074 10.9378 88.9778 11.0399C88.8815 11.142 88.8085 11.2637 88.7637 11.3967C88.719 11.5297 88.7035 11.6708 88.7183 11.8103V14.2924H87.881V10.0496Z" fill="white"/>
<path d="M98.6687 13.1468C98.5549 13.5346 98.3085 13.87 97.9724 14.0944C97.6363 14.3188 97.232 14.4178 96.8303 14.3743C96.5507 14.3816 96.273 14.3281 96.0162 14.2174C95.7595 14.1066 95.5299 13.9413 95.3434 13.733C95.1569 13.5246 95.018 13.2782 94.9363 13.0107C94.8547 12.7433 94.8321 12.4613 94.8704 12.1843C94.8331 11.9065 94.8561 11.6239 94.9375 11.3557C95.019 11.0874 95.1572 10.8398 95.3427 10.6297C95.5282 10.4195 95.7567 10.2516 96.0127 10.1374C96.2687 10.0232 96.5463 9.96532 96.8266 9.96771C98.0071 9.96771 98.7193 10.7743 98.7193 12.1066V12.3987H95.7233V12.4457C95.7102 12.6014 95.7298 12.7581 95.7808 12.9058C95.8318 13.0535 95.9131 13.1889 96.0195 13.3033C96.1259 13.4178 96.255 13.5087 96.3986 13.5703C96.5422 13.6319 96.697 13.6629 96.8533 13.6611C97.0536 13.6852 97.2565 13.6491 97.4362 13.5575C97.616 13.4659 97.7644 13.323 97.8627 13.1468L98.6687 13.1468ZM95.7233 11.7795H97.8663C97.8769 11.6371 97.8575 11.494 97.8095 11.3596C97.7615 11.2251 97.6859 11.1022 97.5875 10.9987C97.4892 10.8951 97.3703 10.8134 97.2384 10.7585C97.1066 10.7037 96.9647 10.6771 96.822 10.6804C96.6771 10.6786 96.5334 10.7057 96.3993 10.7603C96.2651 10.8149 96.1433 10.8958 96.0409 10.9983C95.9385 11.1007 95.8577 11.2226 95.8031 11.3568C95.7486 11.4909 95.7214 11.6347 95.7233 11.7795Z" fill="white"/>
<path d="M99.8824 8.39335H100.72V14.2924H99.8824V8.39335Z" fill="white"/>
<path d="M26.5905 19.636C26.6004 18.8694 26.804 18.1177 27.1824 17.451C27.5608 16.7842 28.1018 16.224 28.7549 15.8225C28.34 15.23 27.7926 14.7423 27.1563 14.3983C26.52 14.0543 25.8122 13.8634 25.0892 13.8408C23.5469 13.6789 22.0517 14.7637 21.2658 14.7637C20.4647 14.7637 19.2546 13.8569 17.9516 13.8837C17.1088 13.9109 16.2874 14.156 15.5674 14.5951C14.8475 15.0342 14.2535 15.6522 13.8435 16.3891C12.0672 19.4644 13.3922 23.9841 15.0937 26.47C15.945 27.6873 16.9399 29.047 18.2418 28.9988C19.5157 28.9459 19.9915 28.1864 21.5292 28.1864C23.0527 28.1864 23.4991 28.9988 24.8274 28.9681C26.1944 28.9459 27.0556 27.7454 27.8771 26.5166C28.4887 25.6493 28.9594 24.6907 29.2717 23.6763C28.4775 23.3404 27.7997 22.7782 27.3229 22.0597C26.8462 21.3412 26.5914 20.4983 26.5905 19.636Z" fill="white"/>
<path d="M24.0816 12.2059C24.827 11.3112 25.1942 10.1611 25.1053 9C23.9666 9.1196 22.9147 9.66383 22.1593 10.5243C21.7899 10.9446 21.5071 11.4336 21.3268 11.9633C21.1466 12.4931 21.0725 13.0531 21.1089 13.6115C21.6784 13.6174 22.2419 13.4939 22.7568 13.2505C23.2718 13.007 23.7247 12.6498 24.0816 12.2059Z" fill="white"/>
</svg>
