<svg id="Layer_1" data-name="Layer 1" xmlns="http://www.w3.org/2000/svg" viewBox="0 0 1080 1080"><defs><style>.cls-1{fill:#000256;}.cls-2{fill:#8a0c05;}.cls-3{fill:#831009;}.cls-4{fill:#f79728;}.cls-5{fill:#f2852c;}.cls-6{fill:#821311;}.cls-7{fill:#eca659;}.cls-8{fill:#dc4a42;}.cls-9{fill:#ddb179;}.cls-10{fill:#8a0b05;}.cls-11{fill:#ea893d;}.cls-12{fill:#e68b42;}.cls-13{fill:#dd9a66;}.cls-14{fill:#e0a270;}.cls-15{fill:#eb3b42;}.cls-16{fill:#c3122f;}.cls-17{fill:#e53c48;}.cls-18{fill:#e53c46;}.cls-19{fill:#e03f49;}.cls-20{fill:#d94a3c;}.cls-21{fill:#fdc223;}.cls-22{fill:#fde701;}.cls-23{fill:#c4142d;}.cls-24{fill:#e54335;}.cls-25{fill:#f3923c;}.cls-26{fill:#fb7c43;}.cls-27{fill:#f3923d;}.cls-28{fill:#fb8939;}.cls-29{fill:#fc614f;}.cls-30{fill:#ec3942;}.cls-31{fill:#c4122f;}.cls-32{fill:#c41230;}.cls-33{fill:#f89728;}.cls-34{fill:#f79629;}.cls-35{fill:#fb8d37;}.cls-36{fill:#eb3943;}.cls-37{fill:#df404b;}.cls-38{fill:#de474f;}.cls-39{fill:#ca5d63;}.cls-40{fill:#a51c2c;}.cls-41{fill:#ea3846;}.cls-42{fill:#c5122e;}</style></defs><circle class="cls-1" cx="539.86" cy="539.85" r="264.29"/><path class="cls-1" d="M726.25,812.82h0a25.63,25.63,0,0,0-34.53-8.62C552.47,884.19,374,841.88,285.55,708a25.42,25.42,0,0,0-34.76-7.85l-26,16a25.79,25.79,0,0,0-11.52,16.12,25.13,25.13,0,0,0,3.51,19.45c73.91,112.57,197.32,174.37,323.57,174.37a384.59,384.59,0,0,0,193-51.88,25.07,25.07,0,0,0,11.91-15.72,25.66,25.66,0,0,0-3-19.72Z"/><path class="cls-1" d="M874.07,346.19A385.86,385.86,0,0,0,732.66,205,25.37,25.37,0,0,0,713,202.62a25.68,25.68,0,0,0-15.48,12.45l-14.47,26.85a25.61,25.61,0,0,0,9.78,34.22c138.88,80.59,191.48,256.25,119.84,399.72a25.5,25.5,0,0,0,10.51,34.28l26.95,14.56a25.84,25.84,0,0,0,11.92,3h.3a24.35,24.35,0,0,0,7.46-1.16,25.29,25.29,0,0,0,15.06-12.71A384.41,384.41,0,0,0,874.07,346.19Z"/><path class="cls-1" d="M235,539A302.4,302.4,0,0,1,318.1,330.69l0,0A302.24,302.24,0,0,1,521.4,235.49a25.63,25.63,0,0,0,24.19-26.19l-.9-30.53a25.79,25.79,0,0,0-8.07-17.89A25.21,25.21,0,0,0,517.91,154c-204.44,11.77-364.5,181.41-364.39,386.18a25.29,25.29,0,0,0,7.74,18.17A25.71,25.71,0,0,0,179,565.51l31.28-.86A25.39,25.39,0,0,0,235,539Z"/><path class="cls-2" d="M624.37,435.64c.56.43,1.09.91,1.68,1.29,14.32,9.2,15.66,20.73,3.66,32.9-3.27,3.31-7,6.15-10.54,9.22-2.14,3.41-5.65,5-9,6.81-27,14.28-56,21.79-86.12,25.47-6.3.77-12.6,1.38-18.91,2-8.51.78-16.94-1-25.42-1.28-12-.93-24-2.47-35.66-5.81-3.31-.72-7.08-.41-9.15-4-14.1-6.76-17-19.06-7.48-31.17,4.18-5.31,9.85-8.72,15.13-12.65,2-.68,3.79-1.79,5.71-2.53s4-.59,3.07,2.57c-5.32,2.68-8.48,7.48-11.68,12.17-5.43,8-4.35,15.51,3.29,21.46s17,8.51,26.61,9.76c3.83-1.48,7.68.06,11.52-.12a128.1,128.1,0,0,0,31,.34c8.68-.59,17.3-1.71,25.88-3.13,17.53-3.1,34.64-7.65,50.92-15,4-1.53,7.56-3.77,11.29-5.75,4.62-1.66,8.07-5.16,12.07-7.79a44.15,44.15,0,0,0,7.66-8.38c5.14-7.88,3.45-15.76-4.79-20.85a51.93,51.93,0,0,0-15.88-6.83c-2-.46-4.39-.34-5.94-2.22s-6.8.5-5.65-3.84c.87-3.27,4.29-.27,6.54-.58a20.68,20.68,0,0,1,3.24.07C606.6,429.67,615.72,431.86,624.37,435.64Z"/><path class="cls-3" d="M609,642.52c1.81-1.48,3.65-2.93,5.43-4.45,7.81-6.71,12.55-14.21,12.84-25.5,1.11-44.8,3.32-89.58,5-134.37.11-3,1.5-5.07,3.47-7.3v45.31c-1,41.44-2.3,82.88-2.37,124.33-.3,6.53-1.32,13.12-.74,19.56,1.35,15.19-7.17,23.93-18.75,31.06-1.19-3,1.35-4.2,2.82-5.78,3.82-4.11,8.07-7.81,11.07-12.66,2-3.28,2.48-6.54,1.24-10.77-2.54,3.09-2.1,6.67-4.09,9.37-2.92,4-6.86,7.06-9.69,10.9-3.24,4.39-6.71,6.36-12,7.7-6.19,1.56-12.24,4.22-18.38,6.33-2.74.94-5.28,1.46-7.31-1.3.86-2.94,3.65-2.63,5.75-3.2a92.9,92.9,0,0,0,25.34-10.87c9.75-6.09,15.57-14.29,15.65-26.12,0-5,.05-10.07.08-16-2.6,2.6-4.32,4.87-6.48,6.67a4.15,4.15,0,0,1-3.63,1.11C613,644.5,610.29,644.42,609,642.52Z"/><path class="cls-4" d="M512.55,503.25a108.07,108.07,0,0,1-31.82-.1c-2.23-1.34-4.36-2.78-5.22-5.44-3.87-11.67-.25-21.15,8-29.72a92,92,0,0,0,13.94-19.38c7-12.58,9.12-25.18.63-38a21.84,21.84,0,0,0-7.6-7.74l0,0a24.08,24.08,0,0,1-2-1.77c-.66-.76-1.73-1.5-1-2.69s1.82-1,2.88-.75c1.22.3,2.52,0,3.67.59a43.51,43.51,0,0,1,24,17.8c4.82,7.07,10.64,9.38,16.52,6.68,6.19-2.85,8.8-9.86,6.41-17.75-6.79-22.43-21.68-38.67-40.17-52a34.12,34.12,0,0,1-9.58-10.27c-4.31-7.25-2.22-15.37,5.62-20.55-1.21,5.08-.82,9.63,2.52,13.37,3.09,3.45,7.16,5.55,11.39,7.25,20.56,8.28,38.4,20.37,52.83,37.34,14.68,17.24,21.5,37.16,20.68,59.75a11.81,11.81,0,0,1,.41,4.83c-1,10.29,4.42,16.49,12.87,21.21,4.76,2.66,10.52,2.51,14.89,5.92-3.77,2.65-7,6.2-11.8,7.2-16.84-4.1-25.22-14.74-25.35-32-.08-11.95.47-23.86-2.65-35.7-7.27-27.61-26.1-44-51.34-54.41-2.68-1.1-5.5-1.85-9.49-3.44a126,126,0,0,1,29.88,30.38c6,8.45,10,17.48,10.39,28.14.62,15.81-14.32,27.43-28,18.58-.31-.2-.69-.16-1.49.16.71,4.6,3.52,7.63,7.44,9.81a55,55,0,0,1,16,12.9c7.5,9.07,7.19,18.84-.9,27.4-8.49,9-25.52,12.41-36.34,6.83-5.47-2.82-9.51-7.22-10.53-13.75-.24-1.55.17-3.25-1.16-5.2-4.75,8.32-9.7,16.11-7.44,26.09,1.22,5.37,2.68,6.67,8.13,6.84,3.08.1,6.18,0,9.26.06C509,501.8,511.06,501.42,512.55,503.25Z"/><path class="cls-5" d="M464.53,622c7.84,20.69,16.48,41.13,23.31,62.16,6,18.53,18.29,27.86,36.72,30.61a7,7,0,0,1,3.86,1.77,13.8,13.8,0,0,1,4.88,0c2.3.59,4.68,0,7,.54,1.11.23,2,.89,1.83,2.21-.13,1.12-1.05,1.35-2,1.34-5.21-.08-10.56.86-15.6-.35-5.93-1.43-12.1-1.38-17.91-3.3l-5.09-.31c-5.45-4.7-12.28-7.78-16.45-14q-2.56-7.12-5.12-14.27a10.6,10.6,0,0,1-2.82-5.12c-3.64-13.64-7.54-27.2-12.9-40.3a13,13,0,0,1-1-5.28c-1.11-4.77-1.34-9.8-4.06-14.12-1.35-2.2-2.69-4.4-2.41-7.15,0-1.62,0-3.42,2.2-3.55,1.79-.1,2.06,1.69,2.75,2.85C462.91,617.73,462.94,620.22,464.53,622Z"/><path class="cls-6" d="M451.33,458.43c-.33-2.29-1.72-2.68-3.32-1.43a7.5,7.5,0,0,1-5.46,1.39c8.93-6.85,19.58-10.34,29.51-15.23,7.25-2.22,14.48-4.51,21.77-6.58,1.56-.44,4.13-2.62,4.84.17.63,2.51-2.62,2.47-4.34,3a187.56,187.56,0,0,0-32.68,13.1C458.18,454.65,455.28,457.51,451.33,458.43Z"/><path class="cls-7" d="M494,398.29l-5.81.3c-.18,2.14,2.14,2.63,2.26,4.32l-9.91-5.32c1.17-3.45,3.73-1.55,5.81-1.5A13.91,13.91,0,0,1,494,398.29Z"/><path class="cls-8" d="M475.51,497.71c2.57,1,3.59,3.52,5.22,5.44a34.36,34.36,0,0,1-11.18-1.33Z"/><path class="cls-7" d="M490.46,402.89a10.27,10.27,0,0,1,7.6,7.74Z"/><path class="cls-9" d="M486.39,396.09c-1.93.52-4.31-.67-5.81,1.5-.74-.45-1.95-.77-2.14-1.4-.43-1.42,1-1.12,1.69-1.1C482.25,395.15,484.47,394.71,486.39,396.09Z"/><path class="cls-10" d="M609,642.52c1.32,1.74,6.93-2,5,3.92-.18,2.84-2.56,3.8-4.44,5.11-9.51,6.62-20.16,10.71-31.14,14.1-23.51,6.37-46.84,6.67-69.9-2.24-.39,8.78,7.47,21.16,16.78,26,12.35,6.44,25.62,7.12,39.2,5.87,4.35-.4,8.74-2.84,13.18-.28,6.61,2.17,11.91-2.51,17.93-3.52,4.68-.79,8.21-6.44,14-3.42.58.3,1.61-.55,1.41-1.24-1.35-4.52,3-5.32,5-7.35,4.53-4.61,9.51-8.66,10-15.84.12-1.77,1.68-3.1,3.56-3.79,4.5,8.29-.34,14-5.19,19.74-3.37,4-8,6.77-10.47,11.58-14.56,10-31.13,14.42-48.29,16.85-16,2.27-31.88,2-47.39-3.08-10.83-3.58-18.18-9.86-22.48-21.45-21.76-58.64-44.4-117-66.7-175.39a17.6,17.6,0,0,0-2.85-5c2.08-2.48,3.7.73,5.49.09,3.26,1.48,7.53.81,9.74,4.54,3.28,1.22,4.52,4,5.7,7,16.66,42.54,33.43,85,50,127.62a15,15,0,0,0,8.1,8.83c20.93,9.76,42.73,10.28,65,6.32A114.24,114.24,0,0,0,609,642.52Z"/><path class="cls-11" d="M457.74,616.79q-6-18.39-12.06-36.78c-.55-1.68-1.3-3.29-2-4.93l-2.34-9.62c-.46-.82-.59-1.79.21-2.28s1.54.17,1.94,1c4.74,12.62,9.61,25.19,14.16,37.88,2.36,6.61,5.51,13,6.83,19.94-2.86-1.07-2.22-4.27-3.75-6.16-.61-.76-.74-2.37-2.11-1.9C457.52,614.34,458,615.8,457.74,616.79Z"/><path class="cls-12" d="M506.62,717c9.88-.06,19.33,4,29.29,3.12,1.71-.15,3.57.57,5.45-1-2.4-2.63-6.14.21-8.32-2.2,6-1.39,12.14-.22,18.2-.63,2.3-.15,4.67.52,6.91-.49H564v1.5C544.93,722.64,525.83,723.38,506.62,717Z"/><path class="cls-13" d="M443.53,564.19c-1.48-.87-2-.17-2.15,1.27-2.47-5.73-4.71-11.53-5.27-17.77l1.34-.47Z"/><path class="cls-14" d="M558.15,715.85c-5.91,2.2-12.06.66-18.08,1.08-2.33.16-4.68,0-7,0l-4.61-.42c3.18-2,6.59-.4,9.88-.52C544.92,715.79,551.54,715.89,558.15,715.85Z"/><path class="cls-15" d="M618.12,483.37c12.51,8.36,11.31,19.89-3,28.62-1.26.51-2-.13-2.72-1.08-.26-3.09,2.35-4.21,4.09-5.91,4.23-4.11,5.74-8.85,3.33-15.92-1.51,6.36-5.12,8.86-11.46,9.13,5.94,6.2,2.13,11.42.34,16.76a83.36,83.36,0,0,1-20.3,10.69c-8.78,3-17.35,6.83-26.79,7.51C556,531.94,550.5,534,545,534.5c-15.16,1.47-30,1-44.55-4A36,36,0,0,1,485,519.74c-1.06-1.22-2.27-2.41-1.85-4.29l7.43-.4a.92.92,0,0,1,1.17-.15,1.61,1.61,0,0,1,.26,1.2c-1.13,1.6,1.11,1.85,1.2,3,2.37,2.71,5.68,3.65,8.88,4.8a83.21,83.21,0,0,0,37.36,6.1c-2-.23-4.07.92-6.06,0-1.54-2.93,1.17-8,5.39-9.36,2.06-.69,4-1.52,6.11-2.2,10.73.25,21.37,2.24,32.14,1.71,2.15-.1,4.31.19,6.41-.43,3.33-.58,6.66-1.17,9.94-2-4.82-.29-10.18.28-12.85-5-2-4,0-7.35,2.91-10.2,5.44-5.29,12.49-6.85,19.53-8.31,3.77-.79,6.94-2,7.65-6.32C612.35,485.11,614.46,482.94,618.12,483.37Z"/><path class="cls-16" d="M483.12,515.45c8,11,19.49,15.43,32.52,17.19a126.78,126.78,0,0,0,44.16-2c1.94-.42,2.37.12,1.55,1.85-7.9,3.35-16.39,4.29-24.73,5.32-14.71,1.83-29.53,2.74-44.35.7-7-1-14-2.15-20.59-4.72C467,532,463.08,529,461,524.29c-1.56-3.48-2.85-7.27,1.21-10.25Z"/><path class="cls-17" d="M509.07,647.24c-3.66-.85-5.73-3.1-7.13-6.66-12.79-32.42-25.77-64.76-38.56-97.18-1.22-3.08-3.69-5.7-3.6-9.37,20.19,11.53,42.2,11.33,64.29,10,23-1.39,45.19-6.55,66.79-14.4a1.71,1.71,0,0,1,.28,1.64c-4,5.91-10.84,5.07-16.48,7-7.16,2.4-14.73,3.51-21.85,6.15-14.14,4.69-28.79,5-43.49,5.13-13.66.13-27.08-1.29-40.75-6,5.94,14.82,11.54,28.91,17.78,42.73,1,2.15,2.18,4.2,2.1,6.67-.92,6.29,2,11.79,4.77,16.79,2.1,3.84,1.71,9,6,11.66a3.19,3.19,0,0,1,.77,1.33c-.82,5.16,2,9.09,4.46,13.15a16.9,16.9,0,0,1,1.37,3.56C505.13,642.78,509.68,643.93,509.07,647.24Z"/><path class="cls-18" d="M509.07,647.24c-1.39-2.64-5.69-3.68-4.32-7.84,1.65-.5,2.79.52,3.92,1.4a32.36,32.36,0,0,0,13.32,6c30.78,6.5,59.42,1.41,85.8-16.06,5.57-3.69,8.23-9.51,12.19-14.39a1.68,1.68,0,0,1,1.66.22,4.26,4.26,0,0,1-.17,3.46c-2.33,8.69-8.61,14.32-15.82,18.58-27.26,16.15-56.25,21.75-87.27,12.88C515.09,650.56,511.81,649.46,509.07,647.24Z"/><path class="cls-19" d="M462.2,514c-2.55,7.78,1.28,15.29,9.74,18.34A98.33,98.33,0,0,0,501.07,538c18.85.81,37.57-.4,55.95-5.16a22.12,22.12,0,0,1,4.33-.25,100.4,100.4,0,0,0,34.31-11.24c4.18-2.25,9.26-3.52,12.64-7.32.41-2.47,1.9-3.48,4.33-3.23l2.5,1.24c-10,8.64-22,13.16-34.24,17.12-29.25,9.5-59.25,14-90,10.92-9.91-1-19.94-2.19-28.66-8-5.09-3.37-7.84-9.29-6.54-14.82C456.55,513.48,458.38,511.78,462.2,514Z"/><path class="cls-20" d="M621.47,620l-.1-3.51c-2.53-3.06-.87-7-2.32-10.36-1.53-8.73,1.21-17.35.77-26-.59-11.46,1.38-22.81,1.12-34.22,0-9.21-.13-18.44,1.48-28.58-9.18,4.86-15.75,12.49-25.41,14.45-2.15.05-4.36.37-6.11-1.37,0-.26,0-.53,0-.79,6.18-3.06,12.47-5.93,18.51-9.25A48.26,48.26,0,0,0,625,507c1.93.92,1.08,2.58,1,3.81q-1.68,52.59-3.49,105.16C622.51,617.4,622.73,618.93,621.47,620Z"/><path class="cls-21" d="M512.55,503.25c-4,0-8-.28-12-.1-10.26.47-11.76-.94-12.87-10.89-1.15-10.35,4.13-18.87,10.8-27.39a9.68,9.68,0,0,1,.74,2.35c-1.35,14.64,9,21.74,22.24,21.64,7.7-.06,15-1.92,21-7.34,10.26-9.18,10-20.84-.85-30.79a66.39,66.39,0,0,0-13.24-9.4,14.54,14.54,0,0,1-7.65-10.59c-.2-1.05-.93-2.14.16-3s2,.31,2.79.88c3.85,2.68,8,4.31,12.74,3.38,7.86-1.53,13.6-8.76,14.11-16.95.86-13.78-5.57-24.56-13.41-35-8.08-10.75-18.13-19.42-28.07-28.79,4.84,1.62,9.79,3,14.5,4.89,17.54,7.2,32.24,18.35,42.2,34.48a75.67,75.67,0,0,1,10.85,37.12c.24,6.17,0,12.36,0,18.54,0,16,5.3,24,19.95,30.19,1.47.62,3.28.64,4,2.49a31.19,31.19,0,0,1-10.75,5.77,7.17,7.17,0,0,0-3.35-4c-15-9.43-20.41-22.2-17-40,2.16-11.37,2.41-22.7-.34-34-1.23-5.06-4.35-9.16-6.56-13.79.93,6.65,2.7,13.13,2.73,20,0,10.39-3.54,18.37-12.84,23.44-.8.43-1.62.83-2.39,1.3-4.86,3-4.86,4.12-.61,7.87,6.8,6,12.54,12.7,12.29,22.62-.27,10.48-7.09,16.2-15.25,20.82-4,2.26-8.66,2.67-12.92,4.23a20.67,20.67,0,0,0-8.16,5.68c4.82,1,9.29-2.29,13.17,1.05A108.45,108.45,0,0,1,512.55,503.25Z"/><path class="cls-22" d="M538.6,499.94c-4-.51-7.92.35-11.86.92-1.29.18-3.24.82-3.89-.86s1.3-2.25,2.25-3.26c5.43-5.76,13.39-5.72,20-8.76,15.85-7.28,20.87-22.59,8.75-35.88-2.33-2.55-4.43-5.2-7.42-7-3.66-2.21-2.83-4.53-.07-6.84s5.92-3.32,8.74-5.32c6.85-4.83,8.54-11.49,8.77-19.29.21-7.16-1.59-13.91-3.08-20.76-.29-1.32-.51-2.44.88-3.67,8.32,10.82,11.44,22.94,11,36.31-.24,6.72-1.64,13.25-2.39,19.87-1.78,15.85,4.55,27.82,18.66,35.21,2.93,1.53,1.9,2.52,1,4.2C573.6,492.64,556.42,497.35,538.6,499.94Z"/><path class="cls-10" d="M632.61,608.56c-1.38,7.79,1.53,15-2.19,22-.79,1.49,1.1,4.36,1.63,6.63.28,1.22.47,2.65-1.2,3.12s-2.44-.41-3-2.11c-1.69-5.33-5-10.64,1-15.51,1.43-1.16-.17-2.19-.4-3.3C627.59,615.29,626.71,611.08,632.61,608.56Z"/><path class="cls-10" d="M616.39,642.24c-.65-2.27-.57-3.86,1.67-4.73.69-.27,1.66-.08,1.7.65C619.87,640.21,618.21,641,616.39,642.24Z"/><path class="cls-11" d="M460.09,626.33l-.45-3.12c3.76,4,4.08,9.15,4.7,14.2Q462.21,631.88,460.09,626.33Z"/><path class="cls-23" d="M612.63,510.75,608.3,514c-1.68-1.25-.26-2.13.36-3.12,2.32-3.71,3-7.22-.54-10.77-3.22-3.26-.16-3.39,2.09-3.46,4.7-.14,7.47-2.27,7.93-7.08.08-.85-.15-2,1-2.23,1.35-.28,1.78.91,2.32,1.83,2.75,4.76.78,13.07-4.25,17.08A18.09,18.09,0,0,0,612.63,510.75Z"/><path class="cls-24" d="M491.67,519.49c1-1.12-3.09-2.21,0-3.34,4.64-.62,8.51,2,12.78,3,7.09,2.17,14.11,4.47,21.71,4.48,3.8,0,7.12-.13,9.77-3.27.92-1.09,2.47-1.47,3.89-1.83s3-.3,4.18.93c-3.53,2.48-7.92,3.68-10.54,7.57a2,2,0,0,0-.33,2.19c-2.16,2-4.92,1.43-7.24,1-8-1.33-16-2.45-23.52-5.76A45,45,0,0,1,491.67,519.49Z"/><path class="cls-25" d="M576.51,501.93q17.75-6.49,34.92-14.34c1.06,5.87-3,7.06-7.32,7.81-7.14,1.26-14,3.13-19.88,7.7-1.5.72-2.3,2.71-4.36,2.42A26,26,0,0,1,576.51,501.93Z"/><path class="cls-26" d="M501.48,523.84c10.43,2.46,20.68,6,31.62,5.38h7.56c-14.1,4.55-27.19.3-40.24-4.34C500.18,523.92,500.33,523.36,501.48,523.84Z"/><path class="cls-27" d="M503.65,520.43l-12-4.28a2,2,0,0,1,.08-.69l34.8-2.64c-1.65,4.55-5.82,3.5-9.07,3.67C512.47,516.74,507.71,517.16,503.65,520.43Z"/><path class="cls-28" d="M580,505.31c1.49-.62,2.42-2.29,4.27-2.21-6.84,9.31-4.67,11.55,13.8,13.63a24.52,24.52,0,0,1-13.66,3.93l-.51-.62c-2.51-3.45-6.57-6.16-5.26-11.4C578.91,507.44,578.89,506.16,580,505.31Z"/><path class="cls-28" d="M544,519.45l-4.34.11c-.21-1.77,1.16-2.07,2.35-2.41a14.32,14.32,0,0,1,5.38-.73c12.31,1.31,24.71,1.94,36.93,4.12l.08.12c-7.2,2.22-14.54,1-21.8.71C556.36,521.11,550.18,520.12,544,519.45Z"/><path class="cls-29" d="M501.48,523.84l-1.06,1c-3-1.71-6.66-2.24-8.75-5.38A43,43,0,0,1,501.48,523.84Z"/><path class="cls-30" d="M590.9,530.42h6.61c5,2.65,8.24,6.72,10.41,12a124.67,124.67,0,0,1,6.92,24.46,338.38,338.38,0,0,1,3.79,36.36c.06,1.44,0,3,1.75,3.53,2,3.1.59,6.54,1,9.8l-1.11,0c-8.5-11.89-21.29-12.28-34-12.68-20.66-.65-40.35,3.79-59.45,11.36-4.58,1.82-8.62,4.62-12.92,6.95-5.69,3.1-8.21,8.34-10.26,14-2.93-3.89-6.44-7.59-4.27-13.14,3.58-1.39,2.14-4,1.54-6.39-3.24-12.67-6-25.41-5.2-38.6.42-6.76,1.65-13.35,6.07-18.81a17.4,17.4,0,0,1,11.47-6.57c10.57-1.52,20.93-4.18,31.43-6.17a20.38,20.38,0,0,0,8.07-3c.46-.54.83-1.42,1.39-1.56,9.69-2.44,19.35-5,29.12-7C586.44,534.17,588.34,531.88,590.9,530.42Z"/><path class="cls-31" d="M503.58,636.18c-.68-5.89,2.06-9.82,6.7-13.22,14.53-10.65,31.27-15.26,48.59-18.42,16.68-3,33.3-3.69,49.85,1,5.88,1.68,9.81,5.1,11.54,11C616.59,629.18,605.89,635,595.5,640a114.23,114.23,0,0,1-51.31,11.24c-9.78-.14-19.73-1.06-29.08-5.09a43.12,43.12,0,0,1-10.36-6.73Z"/><path class="cls-32" d="M552.69,543.47c-4.22,4.7-10.4,4.64-15.81,6-8.35,2.16-17,3.33-25.46,4.91-5.31,1-8.78,4.64-10.86,9-4.3,9.14-4.09,19-3,28.8a154.61,154.61,0,0,0,5.85,27.47c.52,1.71.75,3.77-1.13,4.94-1.63,1-1.89-1.21-3-1.62,0-.35,0-.69-.07-1-3.93-2.09-3.19-6.61-4.89-9.86-3-5.82-5.87-11.88-7.07-18.48-2.33-8.77-6.82-16.65-10.26-25-3.66-8.83-6.6-18-11.63-27.34,9.24,2.33,17.4,5,26,5.86a217.42,217.42,0,0,0,37.41.25A117,117,0,0,0,552.69,543.47Z"/><path class="cls-30" d="M487.28,593.66a297.1,297.1,0,0,1,12,28.34c-1.67,0-3.59,0-4-2-1.65-8.1-6.17-15.06-8.78-22.77C486,595.86,486.82,594.81,487.28,593.66Z"/><path class="cls-33" d="M584.3,520.54c-10.83.16-21.57.15-32.25-2.68-3.8-1-8.44-.12-12.41,1.7-1.92,1.26-4.11,2.08-5.21,4.44-.62,1.35-2,1.58-3.71,1.5-9.27-.45-18.35-1.76-27.07-5.07,1.16-5.2,5.61-4.85,9.33-5.22,4.59-.46,9.39.53,13.55-2.39,14-2.41,28-4.58,41.67-8.62,2.75-.81,5.54-1.52,8.31-2.27,2.31-.06,3.75.77,3.46,3.38,0,2.29,0,4.59,0,6.88,0,1.94.49,3.65,2.68,3.91C586.28,516.54,585.39,518.46,584.3,520.54Z"/><path class="cls-34" d="M613.69,566.4c-2.28-6.38-3.17-13.13-5.35-19.58s-6.4-11.49-10.84-16.41c9.71-3,16.76-10.33,24.9-15.31v29.51c-1.16,12-2,24-1.58,36.07,0,1.45,0,2.91,0,4.36s-.29,2.58-2,2.68c-2,.12-2.33-1.2-2.36-2.83A71.5,71.5,0,0,0,613.69,566.4Z"/><path class="cls-35" d="M613.69,566.4c3.06,5.25,3.83,11,3.38,16.91-.1,1.34-.45,3.41,1.59,3.41s1.66-2.06,1.59-3.4c-.35-6.83-.48-13.76-.45-20.51a71.54,71.54,0,0,1,2.6-18.2q-1,27.81-2.06,55.62c-.08,2.16,0,4.33,0,6.5-2.84,2-3.07-.31-3.28-2.15-.45-3.93-.19-7.88-.78-11.86C615.06,584,614.52,575.18,613.69,566.4Z"/><path class="cls-36" d="M581,666.57c3.6-.91,7.29-1.49,10.62-3.26,2-.1,5-2.32,4.66,2.31l-5,4.54c-6.84,4.2-12.38,9.9-17.81,15.68a11.45,11.45,0,0,1-6.33,3.87,96.39,96.39,0,0,1-19.79,1.52c-1.85-.07-3.81-.08-3.49-2.84,6.58-2.74,10.29-9.37,16.81-12.18a87.44,87.44,0,0,1-33.92.5c-4.5-.77-5.87-2-6.21-5.08a17.59,17.59,0,0,1,6.3.42c14.26,1.89,28.43,1.58,42.43-2C573.25,669,577.12,667.74,581,666.57Z"/><path class="cls-37" d="M544,688.6c.54,1,1.36,2.11,2.43,1.93,10.27-1.71,21.84,2,30-8.51,3.85-4.95,8.15-10.18,14.91-11.86-6.15,6.37-13.5,11.46-19.09,18.47-1.85,2.32-5.32,2-8.14,2.51-11.26,2.1-22.38,1.73-33.11-2.56-9.3-3.72-15.22-10.69-18.94-21.12l14.83,4.59-6.85.12c1.92,6.05,6.7,9.15,11.94,11.9C535.79,686.08,540.42,685.9,544,688.6Z"/><path class="cls-38" d="M596.31,665.62c-.42-3.07-3-1.84-4.66-2.31,3.2-2.79,7.91-2.48,11.06-5.38,1.19-.58,2.23-.82,2.28,1.06C601.76,660.75,600.27,664.81,596.31,665.62Z"/><path class="cls-39" d="M605,659l-2.28-1.06c3.9-2.82,7.82-5.62,11.72-8.45,1.35-1,2.85-2.62,2.66.9C612.9,653,609.59,656.92,605,659Z"/><path class="cls-40" d="M557.64,645c-4.44.75-10.16-.54-15.65-3.25-2.63-1.3-5.85-2.5-5.94-5.74-.09-3.59,2.31-6.47,5.38-8.27a82.14,82.14,0,0,1,11.17-5.61c12.93-5.1,26.46-5.19,40-4,3.58.31,7.21,1.46,8,6,.86,4.68-1.77,7.43-5.23,9.83C584.55,641.44,572.59,645.31,557.64,645Z"/><path class="cls-41" d="M611.65,616.79c-10.17-6.06-20.51-7.32-30.93-6.66-18,1.15-35.46,4.51-51.35,13.72a29.18,29.18,0,0,0-8.33,7.73c-2.28,3-1.2,6.22.83,9.06,1.49,2.09,3.7,3.38,6.52,4.69-6.27.35-13.86-3.79-16.14-8.39-1.85-3.74.32-8.89,5.12-12.5,11-8.29,23.84-12.29,37-15,16.53-3.42,33.28-5,49.85.47C607.29,610.94,610.06,612.29,611.65,616.79Z"/><path class="cls-42" d="M544,688.6c-10-1-18.55-4.82-24.63-13.21-1-1.42-2.41-2.73.66-3.22,10.28,6.1,21.5,4.35,32.55,3.88,4.18-.19,8.2-2.48,13.41-1-6.37,3.79-12.66,6.43-16.36,12.47C548.44,689.41,545.89,688.29,544,688.6Z"/></svg>